<?xml version="1.0" encoding="UTF-8" standalone="no"?>
<!-- Created with Inkscape (http://www.inkscape.org/) -->

<svg
   xmlns:dc="http://purl.org/dc/elements/1.1/"
   xmlns:cc="http://creativecommons.org/ns#"
   xmlns:rdf="http://www.w3.org/1999/02/22-rdf-syntax-ns#"
   xmlns:svg="http://www.w3.org/2000/svg"
   xmlns="http://www.w3.org/2000/svg"
   xmlns:sodipodi="http://sodipodi.sourceforge.net/DTD/sodipodi-0.dtd"
   xmlns:inkscape="http://www.inkscape.org/namespaces/inkscape"
   id="svg3039"
   version="1.1"
   inkscape:version="0.48.4 r9939"
   width="321.06284"
   height="46"
   xml:space="preserve"
   sodipodi:docname="most2.svg"><metadata
     id="metadata3045"><rdf:RDF><cc:Work
         rdf:about=""><dc:format>image/svg+xml</dc:format><dc:type
           rdf:resource="http://purl.org/dc/dcmitype/StillImage" /><dc:title></dc:title></cc:Work></rdf:RDF></metadata><defs
     id="defs3043"><clipPath
       clipPathUnits="userSpaceOnUse"
       id="clipPath3055"><path
         d="M 0,46 289,46 289,0 0,0 0,46 z"
         id="path3057"
         inkscape:connector-curvature="0" /></clipPath></defs><sodipodi:namedview
     pagecolor="#ffffff"
     bordercolor="#666666"
     borderopacity="1"
     objecttolerance="10"
     gridtolerance="10"
     guidetolerance="10"
     inkscape:pageopacity="0"
     inkscape:pageshadow="2"
     inkscape:window-width="1920"
     inkscape:window-height="1058"
     id="namedview3041"
     showgrid="false"
     inkscape:zoom="3.4273882"
     inkscape:cx="175.13092"
     inkscape:cy="36.423327"
     inkscape:window-x="0"
     inkscape:window-y="0"
     inkscape:window-maximized="1"
     inkscape:current-layer="g3047"
     fit-margin-top="0"
     fit-margin-left="0"
     fit-margin-right="0"
     fit-margin-bottom="0" /><g
     id="g3047"
     inkscape:groupmode="layer"
     inkscape:label="MOST Logo 289x46"
     transform="matrix(1.25,0,0,-1.25,-8.356875,49.124375)"><g
       id="g3266"
       transform="matrix(0.93332319,0,0,0.93332319,0.44576782,0.16665869)"><g
         transform="translate(49.554,8.179)"
         id="g3061"><path
           inkscape:connector-curvature="0"
           id="path3063"
           style="fill:#ffffff;fill-opacity:1;fill-rule:evenodd;stroke:none"
           d="m 0,0 5.775,0 0,16.181 L 9.694,0 13.4,0 l 4.123,16.181 0,-16.181 6.25,0 0,31.456 -8.668,0 L 11.635,14.24 8.164,31.456 0,31.456 0,0 z m 32.585,26.128 c 0,1.047 0.322,1.529 1.105,1.529 0.87,0 1.149,-0.483 1.149,-1.529 l 0,-20.532 c 0,-1.089 -0.324,-1.524 -1.149,-1.524 -0.828,0 -1.105,0.479 -1.105,1.524 l 0,20.532 z m -6.608,-2.096 0,-16.6 c 0,-5.548 1.882,-8.129 7.713,-8.129 5.828,0 7.713,2.581 7.713,8.129 l 0,16.6 c 0,5.503 -1.837,8.124 -7.713,8.124 -5.787,0 -7.713,-2.576 -7.713,-8.124 m 17.369,1.789 0,-3.319 c 0,-1.484 0.095,-2.878 1.699,-4.631 l 5.968,-6.419 c 0.737,-0.785 1.148,-1.484 1.148,-2.535 l 0,-3.321 c 0,-1.045 -0.275,-1.524 -1.099,-1.524 -0.829,0 -1.147,0.432 -1.147,1.524 l 0,6.334 -6.569,0 0,-5.895 c 0,-4.413 2.618,-6.732 7.667,-6.732 4.959,0 7.715,2.278 7.715,6.293 l 0,3.67 c 0,1.967 0,3.496 -1.656,5.199 l -6.331,6.639 c -0.599,0.657 -0.826,1.311 -0.826,2.23 l 0,2.794 c 0,1.092 0.318,1.529 1.147,1.529 0.868,0 1.099,-0.482 1.099,-1.529 l 0,-5.591 6.567,0 0,5.156 c 0,4.105 -2.711,6.463 -7.666,6.463 -5.005,0 -7.716,-2.444 -7.716,-6.335 M 63.832,0 70.4,0 l 0,27.002 4.267,0 0,4.454 -15.057,0 0,-4.454 4.222,0 0,-27.002 z" /></g><g
         transform="translate(133.7012,32.2115)"
         id="g3065"><path
           inkscape:connector-curvature="0"
           id="path3067"
           style="fill:#ffffff;fill-opacity:1;fill-rule:evenodd;stroke:none"
           d="m 0,0 0,-16.646 c 0,-5.502 1.788,-8.083 7.663,-8.083 5.827,0 7.717,2.538 7.717,8.083 l 0,4.544 -6.568,0 0,-6.335 c 0,-1.092 -0.319,-1.523 -1.149,-1.523 -0.826,0 -1.101,0.478 -1.101,1.523 l 0,20.533 c 0,1.092 0.275,1.529 1.101,1.529 0.87,0 1.149,-0.482 1.149,-1.529 l 0,-5.591 6.568,0 0,3.495 c 0,5.502 -1.835,8.123 -7.717,8.123 C 1.882,8.123 0,5.547 0,0 m 17.651,-5.416 0,-12.057 c 0,-4.85 1.655,-7.171 6.888,-7.171 5.239,0 6.884,2.321 6.884,7.171 l 0,12.057 c 0,4.846 -1.645,7.162 -6.884,7.162 -5.233,0 -6.888,-2.316 -6.888,-7.162 m 5.882,1.703 c 0,1.047 0.227,1.529 1.006,1.529 0.782,0 1.101,-0.482 1.101,-1.529 l 0,-15.244 c 0,-1.05 -0.272,-1.53 -1.054,-1.53 -0.781,0 -1.053,0.48 -1.053,1.53 l 0,15.244 z m 10.032,-20.319 5.783,0 0,19.533 c 0,1.004 0.323,1.484 1.061,1.484 0.869,0 1.056,-0.48 1.056,-1.484 l 0,-19.533 5.739,0 0,19.533 c 0,1.004 0.319,1.484 1.05,1.484 0.876,0 1.06,-0.48 1.06,-1.484 l 0,-19.533 5.831,0 0,21.366 c 0,2.883 -1.145,4.283 -3.765,4.283 -1.838,0 -3.218,-0.873 -4.227,-2.579 l -0.088,0 c -0.551,1.659 -1.743,2.579 -3.538,2.579 -1.878,0 -3.258,-0.873 -4.179,-2.579 l -0.088,0 0,2.096 -5.695,0 0,-25.166 z m 23.954,-5.68 5.823,0 0,7.564 0.095,0 c 0.914,-1.614 2.294,-2.411 4.088,-2.411 2.521,0 3.805,1.451 3.805,4.29 l 0,17.603 c 0,2.837 -1.284,4.283 -3.805,4.283 -1.886,0 -3.218,-0.873 -4.183,-2.579 l -0.092,0 0,2.096 -5.731,0 0,-30.846 z m 5.823,25.213 c 0,1.004 0.323,1.484 1.057,1.484 0.87,0 1.056,-0.48 1.056,-1.484 l 0,-13.979 c 0,-1.004 -0.186,-1.482 -1.056,-1.482 -0.734,0 -1.057,0.478 -1.057,1.482 l 0,13.979 z m 24.364,5.633 -5.878,0 0,-19.525 c 0,-1.002 -0.275,-1.484 -1.009,-1.484 -0.873,0 -1.104,0.482 -1.104,1.484 l 0,19.525 -5.827,0 0,-21.36 c 0,-2.837 1.28,-4.245 3.804,-4.245 1.883,0 3.171,0.841 4.136,2.543 l 0.139,0 0,-2.104 5.739,0 0,25.166 z m 2.044,-4.019 2.477,0 0,-16.73 c 0,-2.836 0.598,-4.417 3.908,-4.417 l 5.442,0 0,4.072 -1.956,0 c -1.424,0 -1.516,0.478 -1.516,1.789 l 0,15.286 3.046,0 0,4.019 -3.046,0 0,4.675 -5.878,0 0,-4.675 -2.477,0 0,-4.019 z m 19.173,-16.072 0,6.727 7.944,0 0,8.562 c 0,3.361 -2.569,5.414 -6.935,5.414 -5.372,0 -6.844,-2.358 -6.844,-7.162 l 0,-12.057 c 0,-4.76 1.52,-7.171 6.896,-7.171 4.403,0 6.883,2.147 6.883,5.729 l 0,4.672 -5.835,0 0,-4.714 c 0,-1.05 -0.274,-1.53 -1.048,-1.53 -0.786,0 -1.061,0.48 -1.061,1.53 m 0,15.244 c 0,1.047 0.275,1.529 1.061,1.529 0.774,0 1.048,-0.482 1.048,-1.529 l 0,-4.759 -2.109,0 0,4.759 z m 9.823,-20.319 5.83,0 0,19.533 c 0,1.004 0.315,1.484 1.057,1.484 0.873,0 1.057,-0.482 1.057,-1.484 l 0,-3.146 5.874,0 0,4.979 c 0,2.837 -1.284,4.283 -3.812,4.283 -1.886,0 -3.218,-0.873 -4.176,-2.579 l -0.091,0 0,2.096 -5.739,0 0,-25.166 z m 29.438,5.202 0,2.885 c 0,3.014 -1.056,4.02 -4.131,6.377 -2.429,1.836 -3.813,2.49 -3.813,4.499 l 0,1.356 c 0,1.047 0.279,1.529 1.058,1.529 0.781,0 1.056,-0.482 1.056,-1.529 l 0,-3.932 5.83,0 0,3.843 c 0,3.495 -2.524,5.548 -6.93,5.548 -4.316,0 -6.888,-1.921 -6.888,-5.288 l 0,-2.226 c 0,-3.233 1.423,-4.323 4.084,-6.419 2.48,-1.923 3.904,-2.708 3.904,-4.5 l 0,-2.27 c 0,-1.05 -0.275,-1.53 -1.056,-1.53 -0.779,0 -1.058,0.48 -1.058,1.53 l 0,4.714 -5.874,0 0,-4.672 c 0,-3.582 2.528,-5.729 6.932,-5.729 4.454,0 6.886,2.057 6.886,5.814" /></g><g
         id="g3108"><path
           d="m 7.114,41.5 35.182,0 0,-35.183 -35.182,0 0,35.183 z"
           style="fill:#e61d25;fill-opacity:1;fill-rule:evenodd;stroke:#ffffff;stroke-width:0.85699999;stroke-linecap:butt;stroke-linejoin:miter;stroke-miterlimit:4;stroke-opacity:1;stroke-dasharray:none"
           id="path3069"
           inkscape:connector-curvature="0" /><g
           id="g3071"
           transform="translate(12.7217,7.7911)"><path
             d="m 0,0 c -0.097,0.109 0,0.325 -0.061,0.466 l -0.108,0.263 c -0.026,1.307 0,2.607 0.169,3.988 l -0.097,0.106 0.17,0.204 c 0.058,0.202 0,0.441 0.047,0.667 l 0.146,0.203 0,0.88 c 0.18,0.156 0.119,0.417 0.289,0.63 l 0,0.43 0.12,0.144 0,0.212 0.146,0.226 C 0.808,8.563 0.894,8.778 0.894,8.967 l 0.107,0.239 0,0.406 0.158,0.166 c 0.085,0.224 0,0.465 0.035,0.75 l 0.122,0.07 c 0.096,0.131 0,0.3 0.047,0.441 l 0.109,0.097 c 0.06,0.071 0,0.237 0.06,0.368 l 0.111,0.144 0,0.478 0.133,0.058 0.059,0.107 c 0,0.224 -0.059,0.56 0.145,0.798 l 0,0.238 c 0.013,0.166 0.158,0.202 0.242,0.343 0,0.24 -0.084,0.573 0.109,0.823 l 0,0.227 c 0,0.236 0.206,0.345 0.168,0.629 l 0.133,0.203 0,0.24 c 0.265,0 0,0.402 0.265,0.438 l 0,0.475 0.206,0.145 c 0.122,0.143 -0.035,0.344 0.122,0.443 l 0,0.568 0.216,0.073 c 0.084,0.131 0,0.321 0.11,0.405 0,0.25 -0.026,0.501 0,0.774 l 0.156,0.058 0.025,0.131 0.132,0.168 c -0.024,0.225 0.122,0.298 0.096,0.571 l 0.109,0.107 c 0.049,0.062 0,0.239 0.049,0.359 0.12,0.056 0.145,0.283 0.29,0.404 l 0,0.237 0.158,0.179 c -0.036,0.168 0,0.248 0.12,0.405 0.12,0.454 0,1.001 0.228,1.428 l -0.023,0.253 c 0.145,0.154 0.254,0.403 0.278,0.628 0.207,0.048 0.072,0.214 0.157,0.358 l 0.097,0.085 c 0.024,0.118 0,0.237 0.024,0.392 l 0.12,0.046 c 0.159,0.131 0.134,0.407 0.206,0.607 0.255,0.037 0.096,0.358 0.289,0.573 l 0,0.393 0.195,0.19 0,0.239 c 0.216,0.084 0.12,0.393 0.362,0.523 l 0,0.226 0.228,0.144 c 0.025,0.106 0.109,0.141 0.194,0.296 l 0,0.238 0.097,0.036 c 0.17,0.06 0,0.215 0.133,0.37 0.083,0 0.145,0.037 0.301,0.133 -0.107,0.069 0,0.202 -0.048,0.298 0.109,0 0,0.295 0.181,0.356 0,0 0.061,0.082 0.146,0.226 0,0.072 0.229,0.117 0.277,0.167 l 0.193,-0.05 0.134,-0.299 c 0.035,-0.105 0.157,-0.189 0.204,-0.4 0,-0.182 0,-0.349 0.11,-0.562 0,-0.179 0.059,-0.451 0.059,-0.703 l 0.097,-0.211 0,-0.217 -0.097,-0.214 0,-0.142 c 0,-0.131 0.097,-0.097 0.146,-0.265 0,-0.273 0.035,-0.559 0.035,-0.879 l 0,-1.87 0.122,-0.036 c 0.131,0.166 0.036,0.31 0.216,0.477 l 0,0.487 0.146,0.146 c 0.049,0.201 0.049,0.426 0.085,0.688 0.242,0.394 0.386,0.987 0.412,1.43 l 0.166,0.13 c 0,0.119 -0.059,0.308 0.074,0.393 0.218,-0.085 0.109,0.191 0.291,0.25 l 0.362,0 0.193,-0.227 c 0.035,-0.046 0,-0.236 0.035,-0.331 0.253,-0.181 0.122,-0.524 0.17,-0.847 l 0.095,-0.131 c 0.049,-0.239 0,-0.416 0.182,-0.667 l 0,-0.797 0.109,-0.249 c 0.097,-1.169 0,-2.299 0.048,-3.514 -0.157,-0.678 0,-1.297 -0.084,-2.025 l -0.206,-0.167 0,-1.274 c -0.12,-0.033 -0.144,-0.233 -0.144,-0.392 l 0.083,-0.12 c 0,-0.452 -0.059,-0.866 -0.059,-1.368 l -0.109,-0.059 c -0.085,-0.442 0,-0.857 -0.06,-1.322 l -0.169,-0.19 0.06,-0.263 c -0.097,-0.188 0,-0.392 -0.144,-0.511 -0.049,-0.452 0.084,-0.822 -0.085,-1.311 0.036,-0.08 -0.085,-0.287 -0.122,-0.368 l 0,-0.548 0.073,-0.119 0.134,0.024 c 0.084,0.095 0,0.201 0.047,0.334 l 0.146,0.201 c 0.035,0.335 0,0.796 0.288,1.002 -0.059,0.155 0,0.238 0.111,0.391 0,0.119 0,0.251 0.035,0.394 0.048,0.034 0.098,0.178 0.157,0.274 0,0.5 0.253,1.046 0.29,1.57 0.204,0 0.049,0.241 0.122,0.372 0.035,0.105 0.107,0.176 0.227,0.307 l 0.098,0.108 c 0.072,0.381 0.29,0.726 0.325,1.121 0.025,0.142 0.205,0.189 0.158,0.416 0.085,0.057 0.242,0.261 0.327,0.381 -0.038,0.154 0.048,0.238 0.132,0.415 l 0.242,0.204 c 0.181,0 0.181,-0.215 0.411,-0.381 0.011,-0.204 0.011,-0.358 0.181,-0.525 l 0,-0.786 c 0.29,-1.084 0.205,-2.344 0.252,-3.534 0,-0.848 -0.047,-1.452 -0.047,-2.133 L 14.228,11.29 c 0,-0.561 0.047,-1.107 -0.085,-1.715 C 14.059,9.256 14.059,8.943 13.999,8.563 L 13.864,8.466 c -0.06,-0.092 0,-0.273 -0.06,-0.367 -0.035,-0.037 -0.107,-0.262 -0.181,-0.334 -0.035,-0.19 0.037,-0.381 0,-0.619 L 13.491,7.099 C 13.42,6.933 13.455,6.61 13.176,6.418 13.093,6.205 13.056,5.991 13.007,5.694 L 12.887,5.67 C 12.754,5.622 12.838,5.468 12.827,5.302 l -0.302,-0.073 -0.121,-0.237 -0.145,0 -0.098,0.237 -0.277,0.038 c -0.084,0.201 0,0.427 -0.047,0.677 l -0.122,0.166 0,0.478 -0.205,0.106 0,0.642 -0.134,0.071 C 11.233,7.384 11.425,7.064 11.196,7.029 L 11.233,6.731 C 11.111,6.694 11.111,6.469 10.93,6.373 10.93,6.148 10.749,6.026 10.749,5.741 10.713,5.67 10.676,5.525 10.592,5.468 10.676,5.229 10.339,5.229 10.448,4.954 10.06,4.86 9.626,4.954 9.228,4.908 L 9.131,5.171 8.974,5.302 8.974,5.85 8.9,5.991 C 8.852,7.099 9.009,8.193 8.925,9.374 l 0.084,0.118 c 0,0.357 0.038,0.786 0.038,1.191 l 0.215,0.178 c 0.085,0.31 0,0.654 0.085,1.013 0.231,0.63 0.231,1.415 0.401,2.118 0,0.324 0.023,0.608 0.023,0.964 l 0.146,0.216 c 0,0.177 0,0.462 -0.038,0.68 l 0.111,0.259 c -0.026,0.251 0.07,0.466 0.035,0.739 l 0.131,0.262 0,0.786 0.145,0.167 c 0.098,0.311 0,0.739 0.038,1.07 l 0.109,0.109 c 0,1.012 0.265,2.012 0.181,3.048 l 0.12,0.071 c 0.134,0.202 -0.036,0.452 0,0.691 l -0.12,0.035 c -0.037,-0.072 0,-0.204 -0.037,-0.308 0,-0.048 -0.144,-0.216 -0.12,-0.358 -0.133,-0.084 -0.133,-0.237 -0.29,-0.287 -0.085,-0.129 0,-0.273 -0.026,-0.44 l -0.131,-0.035 -0.061,-0.12 0,-0.63 C 9.879,20.827 9.771,20.733 9.698,20.563 L 9.542,20.21 c -0.086,-0.311 0,-0.632 -0.049,-0.99 -0.146,-0.049 -0.072,-0.356 -0.265,-0.38 -0.097,-0.251 0,-0.501 -0.061,-0.775 -0.073,-0.084 -0.12,-0.131 -0.193,-0.261 0,-0.227 0,-0.335 -0.122,-0.537 0.048,-0.274 -0.133,-0.475 -0.083,-0.784 0,-0.121 -0.11,-0.121 -0.181,-0.289 0,-0.272 0.071,-0.642 -0.184,-0.845 l 0,-0.393 -0.118,-0.073 c -0.074,-0.438 0,-0.854 -0.047,-1.305 L 8.128,13.361 c 0,-0.272 0.084,-0.631 -0.181,-0.846 l 0,-0.701 -0.096,-0.204 0,-0.881 -0.218,-0.201 c 0,-0.31 0.036,-0.679 0,-1.036 l -0.168,-0.203 -0.194,-0.2 0,-0.563 C 7.115,8.099 7.271,7.624 7.198,7.146 7.115,7.064 7.065,7.029 6.994,6.86 l 0,-0.8 -0.122,-0.21 0,-0.228 C 6.788,5.468 6.546,5.588 6.377,5.525 c -0.073,0.216 0,0.466 -0.035,0.68 l -0.085,0.132 0,0.559 -0.195,0.168 c 0,0.998 0,2 0.025,3.023 l 0.144,0.251 -0.096,0.19 0.207,0.201 c -0.085,0.407 0,0.834 0,1.287 0.035,0.022 0.131,0.179 0.168,0.309 l 0,0.644 0.109,0.201 c 0.035,0.5 0.035,1.026 0.035,1.598 l 0.134,0.094 c 0.084,0.143 0,0.31 0.059,0.487 0.025,0 0.038,0.131 0.147,0.24 0,0.714 0.047,1.523 0.121,2.272 l 0.156,0.12 c 0.083,0.358 0,0.715 0.037,1.132 l 0.108,0.226 c 0,0.285 0.049,0.56 0.049,0.871 0.386,0.665 0,1.653 0.433,2.259 0,0.169 -0.132,0.346 -0.108,0.585 L 7.898,23.16 C 7.851,23.779 7.912,24.457 7.947,25.09 7.898,25.053 7.766,25.053 7.633,24.973 7.572,24.721 7.536,24.579 7.513,24.318 L 7.308,24.089 7.247,23.779 7.065,23.672 c -0.024,0 -0.071,-0.105 -0.18,-0.202 0,-0.31 -0.013,-0.585 -0.231,-0.866 -0.059,-0.099 0,-0.265 -0.035,-0.418 L 6.51,22.102 c -0.037,-0.095 0,-0.239 -0.037,-0.37 l -0.216,-0.237 0,-0.239 c -0.122,0 -0.195,-0.203 -0.122,-0.345 L 5.967,20.79 c 0,-0.164 -0.098,-0.164 -0.145,-0.381 l 0,-0.546 -0.277,-0.095 -0.098,-0.109 0,-0.415 -0.121,-0.131 0,-0.182 C 5.291,18.84 5.192,18.733 5.145,18.6 c 0,-0.177 -0.049,-0.381 0.024,-0.619 L 5.036,17.934 C 5.012,17.828 4.914,17.804 4.867,17.628 l 0,-0.24 C 4.757,17.161 4.757,16.838 4.722,16.54 L 4.566,16.434 c 0,-0.131 -0.133,-0.072 -0.158,-0.24 l 0,-0.237 -0.229,-0.105 c -0.061,-0.218 0,-0.538 -0.013,-0.811 l -0.097,-0.119 0,-0.477 L 3.96,14.41 c -0.096,-0.094 0,-0.214 -0.047,-0.333 L 3.804,13.992 C 3.707,13.719 3.804,13.361 3.732,13.04 3.621,12.969 3.707,12.765 3.672,12.6 L 3.551,12.565 C 3.479,12.408 3.395,12.245 3.261,12.016 L 3.176,11.957 c -0.073,-0.189 0,-0.347 -0.013,-0.584 L 2.994,11.207 c -0.143,-0.239 0.037,-0.524 -0.17,-0.75 l 0,-0.239 -0.13,-0.035 -0.062,-0.133 0,-0.63 -0.133,-0.237 0,-0.334 L 2.331,8.731 C 2.295,8.659 2.331,8.505 2.295,8.374 l -0.133,-0.181 0,-0.45 -0.11,-0.052 -0.072,-0.116 0,-0.546 -0.145,-0.252 0,-0.25 -0.11,-0.058 C 1.643,6.314 1.725,6.148 1.691,5.944 L 1.532,5.824 c 0,-0.595 0,-1.308 -0.216,-1.866 L 1.244,3.92 c -0.05,-0.247 0,-0.488 -0.205,-0.655 0.035,-0.343 0,-0.728 0.035,-1.094 L 0.954,1.906 0.954,1.517 0.759,1.384 C 0.675,1.11 0.759,0.798 0.724,0.466 0.52,0.442 0.641,0.216 0.604,0.086 0.52,-0.046 0.3,0.05 0.131,0 L 0,0 z m 12.283,9.206 c -0.122,0.286 -0.326,0.525 -0.483,0.796 0.084,0.157 -0.085,0.241 -0.085,0.395 0.242,0.417 0.205,0.856 0.446,1.287 0,0.084 0.025,0.19 0.122,0.332 0.158,0.392 0.085,0.904 0.374,1.273 0.072,0 0.072,0.12 0.17,0.204 l 0.18,0.119 0.169,-0.083 c 0.038,-0.168 0.135,-0.407 0.194,-0.609 0.085,0 0.121,-0.236 0.218,-0.275 -0.097,-0.607 -0.168,-1.2 -0.326,-1.831 C 13.093,10.647 13.129,10.338 12.972,10.05 12.754,9.849 12.657,9.492 12.404,9.256 l -0.121,-0.05 z m 2.355,-4.214 c 0.074,0.167 -0.097,0.179 -0.168,0.31 -0.085,0.223 -0.038,0.522 -0.195,0.758 l 0,2.789 c 0.037,0.06 0.11,0.24 0.11,0.407 l 0.218,0.164 c 0.07,0.036 0.217,0 0.349,0.036 0.084,0.119 0,0.275 0.048,0.441 l 0.29,0.048 0.061,0.105 0,1.203 c -0.315,0.31 -0.061,0.942 -0.155,1.477 L 15,12.851 l 0,3.656 c 0.242,0.033 0.075,0.39 0.29,0.557 0,0.324 0.048,0.609 0.048,0.953 l 0.193,0.168 c -0.047,0.154 -0.095,0.355 -0.095,0.619 0.118,0.083 0.118,0.178 0.181,0.367 l 0.085,0.049 0.06,0.119 0,0.405 0.17,0.238 0,0.228 0.192,0.199 c -0.036,0.289 0.097,0.524 0.181,0.847 0.133,0.071 0.302,0 0.507,0.035 0.121,-0.081 0.051,-0.284 0.073,-0.416 0.288,-0.619 0.17,-1.573 0.265,-2.335 l 0.108,-0.201 0,-0.405 -0.156,-0.238 0,-1.048 -0.217,-0.165 0,-0.455 -0.096,-0.071 c -0.097,-0.105 0,-0.213 -0.06,-0.323 l -0.122,-0.082 c -0.074,-0.154 0,-0.32 -0.037,-0.511 l -0.132,-0.179 0,-0.262 -0.098,-0.059 c -0.083,-0.225 0,-0.464 -0.035,-0.68 -0.084,-0.452 0.035,-0.892 0,-1.357 l 0.073,-0.143 0,-0.547 C 16.257,11.768 16.34,11.61 16.305,11.445 l 0.111,-0.072 C 16.533,10.92 16.34,10.457 16.533,9.981 l 0.074,-0.036 c 0.085,-0.689 0,-1.323 0.047,-2.036 l -0.121,-0.144 0,-0.927 -0.155,-0.181 C 16.305,6.503 16.378,6.337 16.34,6.148 16.221,5.991 16.052,5.694 16.015,5.372 L 15.762,5.302 15.702,5.027 C 15.351,4.954 15,5.027 14.638,4.992 m 3.225,1.322 c -0.085,0.213 -0.157,0.463 -0.157,0.715 l -0.12,0.189 c 0,0.189 0,0.406 -0.097,0.619 -0.132,0.451 0,1.106 -0.061,1.619 L 17.32,9.527 c -0.096,0.454 0,0.845 -0.062,1.334 l 0.134,0.107 0.036,0.121 c -0.17,0.679 0,1.357 0,2.081 0.254,0.408 -0.036,1.146 0.278,1.516 l 0,0.379 0.122,0.226 c 0,0.107 0,0.261 0.035,0.453 0.038,0.178 0.364,0 0.459,0.178 l 0,0.143 0.158,0.129 0.06,0.109 c 0,0.319 -0.06,0.761 0.18,0.99 l 0,0.641 0.207,0.18 c 0.083,0.262 0,0.619 0.036,0.937 0.121,0.169 0,0.442 0.155,0.644 0,0.418 -0.034,0.776 0.049,1.216 l 0.193,0.096 0,0.284 c -0.313,0.086 -0.578,-0.081 -0.93,-0.143 l -0.023,-0.095 c -0.085,-0.046 -0.18,-0.12 -0.339,-0.178 l -0.482,0 -0.135,0.058 -0.094,0.215 0,1.357 c 0.229,0.133 0.132,0.512 0.349,0.716 0.122,0 0.157,0.322 0.399,0.249 0.034,0 0.085,0.202 0.217,0.24 0.108,0 0.158,0.106 0.313,0.177 0.292,-0.035 0.605,0.154 0.895,0.202 0.037,0.095 0.06,0.205 0.278,0.229 l 0,0.655 c 0,0.117 0.134,0.117 0.229,0.269 0,0.287 -0.095,0.645 0.132,0.86 0,0.213 0.05,0.499 0.05,0.772 l 0.071,0.134 0.181,0 0.074,0.131 0,1.178 -0.074,0.13 0,0.559 0.194,0.109 c 0.097,0.429 0,0.868 0.037,1.356 l 0.193,0.084 c 0.096,0.073 0,0.322 0.231,0.322 0.083,0.036 0.023,0.203 0.047,0.357 0.109,0.082 0.133,0.117 0.23,0.275 l 0.143,0 c 0.169,0.034 0,0.191 0.134,0.368 0.132,0.07 0.267,0 0.433,0.023 0.086,-0.118 -0.035,-0.31 0.159,-0.357 0.096,-1.024 0,-2.095 0.048,-3.192 l -0.207,-0.143 c -0.059,-0.391 0,-0.857 -0.035,-1.284 l -0.241,-0.118 c 0,-0.205 -0.025,-0.394 0,-0.645 l -0.038,-0.227 0,-0.093 c 0.061,-0.073 -0.024,-0.154 0.038,-0.216 l 0,-0.45 -0.122,-0.064 -0.083,-0.116 0,-0.538 0.119,-0.058 c 0.617,0.167 1.269,0.203 1.911,0.203 0,-0.058 0.156,-0.118 0.277,-0.145 0.12,-0.202 0,-0.416 0.205,-0.605 0,-0.309 -0.048,-0.608 -0.048,-0.967 -0.074,-0.104 -0.254,-0.104 -0.387,-0.247 -0.314,0.057 -0.543,-0.096 -0.895,-0.169 l -0.06,-0.13 c -0.18,-0.047 -0.482,-0.153 -0.7,-0.153 -0.047,-0.05 -0.182,-0.084 -0.303,-0.179 l -0.289,-0.073 c -0.156,-0.035 -0.036,-0.32 -0.18,-0.439 -0.109,-0.168 0.024,-0.408 -0.133,-0.526 l -0.072,-0.036 c -0.086,-0.235 0,-0.462 -0.049,-0.75 -0.193,-0.035 -0.133,-0.342 -0.326,-0.524 0,-0.284 -0.037,-0.546 -0.037,-0.855 -0.12,-0.215 0,-0.502 -0.17,-0.658 l -0.122,-0.032 -0.083,-0.133 0,-1.131 -0.192,-0.058 c -0.061,-0.285 0,-0.633 -0.037,-0.955 L 19.88,15.721 c -0.072,-0.407 0,-0.799 -0.072,-1.228 l -0.145,-0.131 c -0.096,-0.203 0,-0.37 -0.073,-0.607 L 19.42,13.67 c -0.096,-0.177 0,-0.343 -0.06,-0.581 l -0.12,-0.083 c -0.073,-0.322 0,-0.681 -0.034,-1.049 0.034,-0.108 0.214,-0.024 0.361,-0.083 l 0.096,0.321 c 0.084,0.166 0.313,0.05 0.47,0.096 l 0.123,0.224 c 0.215,0 0.506,0.05 0.735,0 0.086,-0.107 0.182,-0.19 0.315,-0.32 l 0,-2.464 C 21.282,9.612 21.173,9.527 21.077,9.374 c 0.049,-0.168 0,-0.228 -0.133,-0.407 l 0,-0.236 -0.169,-0.205 0.06,-0.333 -0.17,-0.131 C 20.495,7.981 20.29,8.099 20.169,7.931 l 0,-0.24 -0.193,-0.116 C 19.88,7.504 19.976,7.384 19.942,7.254 19.88,7.146 19.747,7.218 19.567,7.194 L 19.483,6.896 19.36,6.838 l -0.482,0 -0.111,-0.25 -0.287,-0.085 -0.122,-0.189 -0.495,0 z"
             style="fill:#ffffff;fill-opacity:1;fill-rule:evenodd;stroke:none"
             id="path3073"
             inkscape:connector-curvature="0" /></g><g
           id="g3075"
           transform="translate(16.7947,8.6016)"><path
             d="m 0,0 c 0,-0.079 -0.018,-0.166 -0.058,-0.258 -0.04,-0.094 -0.1,-0.182 -0.185,-0.271 -0.084,-0.092 -0.192,-0.164 -0.321,-0.218 -0.133,-0.056 -0.284,-0.084 -0.459,-0.084 -0.131,0 -0.249,0.012 -0.356,0.04 -0.11,0.022 -0.21,0.063 -0.295,0.115 -0.091,0.052 -0.17,0.122 -0.244,0.206 -0.066,0.079 -0.123,0.167 -0.168,0.264 -0.047,0.098 -0.083,0.204 -0.105,0.31 -0.024,0.113 -0.036,0.23 -0.036,0.351 0,0.204 0.03,0.383 0.087,0.541 0.06,0.159 0.145,0.294 0.253,0.41 0.109,0.111 0.236,0.199 0.383,0.256 0.146,0.058 0.303,0.089 0.468,0.089 0.202,0 0.381,-0.039 0.54,-0.12 0.159,-0.083 0.278,-0.18 0.363,-0.301 0.084,-0.117 0.126,-0.228 0.126,-0.336 0,-0.057 -0.019,-0.108 -0.062,-0.151 -0.038,-0.047 -0.088,-0.068 -0.148,-0.068 -0.065,0 -0.113,0.015 -0.146,0.048 -0.031,0.029 -0.068,0.081 -0.106,0.155 -0.068,0.124 -0.144,0.218 -0.236,0.28 -0.088,0.062 -0.196,0.09 -0.329,0.09 -0.207,0 -0.373,-0.078 -0.495,-0.237 C -1.653,0.955 -1.714,0.73 -1.714,0.44 c 0,-0.195 0.027,-0.358 0.081,-0.485 0.055,-0.128 0.132,-0.225 0.232,-0.287 0.102,-0.065 0.217,-0.096 0.352,-0.096 0.146,0 0.268,0.034 0.368,0.105 0.102,0.076 0.175,0.179 0.228,0.321 0.022,0.063 0.049,0.116 0.079,0.157 0.033,0.044 0.085,0.066 0.153,0.066 0.063,0 0.114,-0.022 0.157,-0.066 C -0.022,0.113 0,0.061 0,0 M 1.554,1.751 C 1.813,1.751 2.036,1.7 2.22,1.594 2.406,1.488 2.546,1.342 2.642,1.147 2.738,0.951 2.786,0.727 2.786,0.462 2.786,0.271 2.759,0.095 2.707,-0.062 2.655,-0.218 2.576,-0.357 2.472,-0.473 2.367,-0.59 2.239,-0.676 2.087,-0.74 1.935,-0.799 1.759,-0.831 1.563,-0.831 1.369,-0.831 1.192,-0.799 1.039,-0.735 0.884,-0.674 0.755,-0.587 0.652,-0.472 0.55,-0.354 0.47,-0.217 0.418,-0.057 0.364,0.104 0.339,0.279 0.339,0.466 c 0,0.193 0.025,0.37 0.083,0.528 C 0.477,1.155 0.557,1.29 0.66,1.406 0.766,1.517 0.891,1.603 1.043,1.662 1.192,1.72 1.361,1.751 1.554,1.751 M 2.272,0.466 c 0,0.183 -0.03,0.343 -0.088,0.475 C 2.124,1.079 2.04,1.177 1.931,1.246 1.82,1.316 1.695,1.348 1.554,1.348 1.452,1.348 1.358,1.33 1.273,1.292 1.188,1.255 1.114,1.198 1.051,1.126 0.99,1.054 0.939,0.961 0.904,0.847 0.868,0.735 0.852,0.609 0.852,0.466 0.852,0.323 0.868,0.198 0.904,0.081 0.939,-0.035 0.99,-0.13 1.057,-0.204 c 0.065,-0.077 0.141,-0.131 0.224,-0.168 0.086,-0.038 0.178,-0.056 0.28,-0.056 0.128,0 0.246,0.031 0.357,0.096 0.108,0.064 0.194,0.165 0.257,0.298 0.065,0.137 0.097,0.303 0.097,0.5 m 1.789,-0.878 -0.399,1.591 0,-1.725 c 0,-0.092 -0.022,-0.167 -0.064,-0.215 -0.044,-0.046 -0.1,-0.07 -0.169,-0.07 -0.069,0 -0.124,0.024 -0.168,0.07 -0.043,0.048 -0.065,0.12 -0.065,0.215 l 0,1.978 c 0,0.11 0.028,0.182 0.085,0.221 0.059,0.037 0.135,0.055 0.23,0.055 l 0.158,0 C 3.764,1.708 3.83,1.7 3.873,1.683 3.916,1.668 3.947,1.637 3.969,1.592 3.989,1.545 4.011,1.477 4.037,1.376 l 0.364,-1.37 0.363,1.37 c 0.024,0.101 0.051,0.169 0.07,0.216 0.018,0.045 0.051,0.076 0.095,0.091 0.04,0.017 0.11,0.025 0.205,0.025 l 0.157,0 C 5.387,1.708 5.463,1.69 5.52,1.653 5.577,1.614 5.605,1.542 5.605,1.432 l 0,-1.978 c 0,-0.092 -0.022,-0.167 -0.065,-0.215 -0.042,-0.046 -0.098,-0.07 -0.169,-0.07 -0.068,0 -0.122,0.024 -0.168,0.07 -0.042,0.048 -0.064,0.123 -0.064,0.215 l 0,1.725 L 4.74,-0.412 C 4.714,-0.516 4.692,-0.591 4.677,-0.638 4.659,-0.685 4.629,-0.729 4.584,-0.77 4.541,-0.81 4.48,-0.831 4.401,-0.831 c -0.059,0 -0.108,0.012 -0.15,0.04 -0.04,0.023 -0.072,0.056 -0.095,0.095 -0.024,0.042 -0.041,0.086 -0.054,0.134 -0.013,0.046 -0.027,0.099 -0.041,0.15 m 3.035,0.595 -0.464,0 0,-0.706 c 0,-0.101 -0.026,-0.178 -0.073,-0.228 -0.047,-0.055 -0.108,-0.08 -0.18,-0.08 -0.075,0 -0.137,0.025 -0.184,0.076 -0.047,0.054 -0.069,0.13 -0.069,0.228 l 0,1.926 c 0,0.11 0.025,0.193 0.076,0.239 0.051,0.045 0.131,0.07 0.244,0.07 l 0.65,0 c 0.19,0 0.338,-0.013 0.44,-0.042 C 7.639,1.637 7.727,1.588 7.802,1.524 7.876,1.457 7.935,1.376 7.971,1.279 8.011,1.188 8.03,1.08 8.03,0.961 8.03,0.706 7.95,0.512 7.794,0.38 7.638,0.249 7.405,0.183 7.096,0.183 m -0.124,1.146 -0.34,0 0,-0.762 0.34,0 c 0.118,0 0.219,0.009 0.299,0.035 0.08,0.025 0.142,0.068 0.181,0.125 0.044,0.056 0.066,0.13 0.066,0.222 0,0.109 -0.033,0.201 -0.099,0.268 C 7.346,1.292 7.197,1.329 6.972,1.329 m 1.484,-1.086 0,1.201 c 0,0.101 0.023,0.181 0.07,0.23 0.046,0.05 0.106,0.077 0.182,0.077 0.076,0 0.139,-0.027 0.184,-0.077 0.047,-0.049 0.07,-0.129 0.07,-0.23 l 0,-1.227 c 0,-0.14 0.016,-0.258 0.047,-0.349 0.032,-0.095 0.085,-0.169 0.165,-0.22 0.08,-0.054 0.193,-0.076 0.336,-0.076 0.196,0 0.336,0.052 0.418,0.156 0.083,0.106 0.125,0.266 0.125,0.477 l 0,1.239 c 0,0.104 0.022,0.181 0.066,0.232 0.045,0.051 0.107,0.075 0.183,0.075 0.075,0 0.137,-0.024 0.186,-0.075 0.045,-0.051 0.069,-0.128 0.069,-0.232 l 0,-1.201 c 0,-0.197 -0.02,-0.358 -0.058,-0.489 -0.037,-0.13 -0.11,-0.245 -0.213,-0.344 C 10.193,-0.674 10.088,-0.735 9.969,-0.77 9.846,-0.813 9.706,-0.831 9.546,-0.831 9.354,-0.831 9.189,-0.81 9.051,-0.769 8.912,-0.727 8.798,-0.661 8.71,-0.574 8.625,-0.491 8.561,-0.376 8.517,-0.241 8.476,-0.108 8.456,0.056 8.456,0.243 m 4.271,1.047 -0.552,0 0,-1.813 c 0,-0.103 -0.023,-0.181 -0.069,-0.233 -0.047,-0.05 -0.11,-0.075 -0.18,-0.075 -0.075,0 -0.138,0.025 -0.184,0.075 -0.045,0.052 -0.071,0.131 -0.071,0.233 l 0,1.813 -0.554,0 c -0.085,0 -0.148,0.022 -0.19,0.058 -0.044,0.039 -0.064,0.087 -0.064,0.152 0,0.065 0.022,0.116 0.066,0.153 0.043,0.037 0.107,0.055 0.188,0.055 l 1.61,0 c 0.087,0 0.152,-0.018 0.195,-0.058 0.043,-0.037 0.065,-0.087 0.065,-0.15 0,-0.065 -0.024,-0.113 -0.066,-0.152 C 12.877,1.312 12.814,1.29 12.727,1.29 m 2.205,0.03 -1.139,0 0,-0.614 1.05,0 c 0.075,0 0.135,-0.019 0.173,-0.052 0.036,-0.034 0.057,-0.08 0.057,-0.138 0,-0.055 -0.02,-0.103 -0.055,-0.139 C 14.978,0.341 14.92,0.323 14.843,0.323 l -1.05,0 0,-0.709 1.18,0 c 0.078,0 0.138,-0.02 0.177,-0.056 0.04,-0.037 0.06,-0.085 0.06,-0.148 0,-0.058 -0.02,-0.108 -0.06,-0.144 -0.039,-0.035 -0.099,-0.055 -0.177,-0.055 l -1.376,0 c -0.112,0 -0.19,0.025 -0.239,0.072 -0.048,0.051 -0.072,0.129 -0.072,0.238 l 0,1.878 c 0,0.074 0.012,0.131 0.031,0.178 0.021,0.048 0.057,0.079 0.103,0.1 0.047,0.023 0.104,0.031 0.177,0.031 l 1.335,0 c 0.08,0 0.141,-0.018 0.18,-0.053 C 15.15,1.62 15.17,1.574 15.17,1.514 15.17,1.456 15.15,1.407 15.112,1.371 15.073,1.341 15.012,1.32 14.932,1.32 m 1.363,-1.041 -0.18,0 0,-0.802 c 0,-0.107 -0.024,-0.181 -0.069,-0.233 -0.047,-0.05 -0.107,-0.075 -0.18,-0.075 -0.082,0 -0.145,0.025 -0.189,0.08 -0.044,0.05 -0.068,0.127 -0.068,0.228 l 0,1.922 c 0,0.109 0.026,0.189 0.075,0.238 0.047,0.046 0.128,0.071 0.237,0.071 l 0.824,0 c 0.113,0 0.207,-0.003 0.29,-0.013 0.081,-0.012 0.152,-0.029 0.216,-0.058 0.08,-0.034 0.15,-0.082 0.211,-0.142 0.06,-0.062 0.104,-0.131 0.136,-0.216 0.032,-0.081 0.047,-0.166 0.047,-0.259 0,-0.183 -0.052,-0.334 -0.157,-0.444 -0.106,-0.111 -0.264,-0.19 -0.478,-0.239 0.09,-0.045 0.176,-0.116 0.257,-0.211 0.082,-0.09 0.155,-0.19 0.219,-0.298 0.065,-0.103 0.112,-0.198 0.149,-0.28 0.037,-0.085 0.054,-0.144 0.054,-0.178 0,-0.03 -0.011,-0.063 -0.03,-0.096 -0.021,-0.033 -0.051,-0.059 -0.087,-0.077 -0.038,-0.02 -0.08,-0.028 -0.127,-0.028 -0.056,0 -0.104,0.012 -0.143,0.04 -0.036,0.027 -0.073,0.063 -0.1,0.101 -0.026,0.04 -0.064,0.102 -0.113,0.183 l -0.202,0.334 c -0.073,0.123 -0.138,0.219 -0.195,0.285 -0.058,0.065 -0.115,0.109 -0.175,0.131 -0.06,0.023 -0.135,0.036 -0.222,0.036 m 0.288,1.05 -0.468,0 0,-0.687 0.455,0 c 0.122,0 0.224,0.011 0.306,0.031 0.083,0.02 0.148,0.057 0.189,0.108 0.046,0.05 0.067,0.123 0.067,0.21 0,0.067 -0.018,0.13 -0.054,0.182 -0.034,0.053 -0.084,0.093 -0.145,0.119 -0.059,0.027 -0.175,0.037 -0.35,0.037 m 3.438,-1.367 c 0,-0.15 -0.04,-0.288 -0.118,-0.405 -0.078,-0.124 -0.191,-0.217 -0.342,-0.285 -0.148,-0.069 -0.325,-0.103 -0.531,-0.103 -0.248,0 -0.451,0.046 -0.612,0.138 -0.113,0.069 -0.204,0.157 -0.277,0.273 -0.069,0.109 -0.105,0.217 -0.105,0.323 0,0.061 0.021,0.113 0.063,0.157 0.042,0.043 0.096,0.065 0.163,0.065 0.054,0 0.097,-0.013 0.134,-0.051 0.038,-0.034 0.071,-0.081 0.095,-0.152 0.032,-0.076 0.066,-0.142 0.104,-0.2 0.037,-0.049 0.09,-0.094 0.158,-0.13 0.066,-0.034 0.153,-0.052 0.264,-0.052 0.15,0 0.269,0.037 0.363,0.106 0.095,0.069 0.142,0.157 0.142,0.261 0,0.081 -0.025,0.151 -0.075,0.203 C 19.396,0.16 19.329,0.199 19.25,0.227 19.171,0.256 19.061,0.285 18.929,0.314 18.751,0.357 18.6,0.408 18.478,0.461 18.356,0.517 18.261,0.596 18.19,0.693 18.117,0.787 18.083,0.91 18.083,1.054 c 0,0.136 0.036,0.258 0.111,0.363 0.075,0.107 0.186,0.191 0.327,0.249 0.144,0.057 0.31,0.085 0.501,0.085 0.154,0 0.285,-0.018 0.397,-0.056 0.113,-0.04 0.205,-0.089 0.281,-0.152 0.072,-0.064 0.125,-0.13 0.16,-0.199 0.036,-0.068 0.052,-0.133 0.052,-0.203 0,-0.061 -0.023,-0.113 -0.065,-0.163 -0.044,-0.047 -0.094,-0.072 -0.157,-0.072 -0.058,0 -0.102,0.014 -0.134,0.043 -0.031,0.028 -0.062,0.077 -0.096,0.143 -0.047,0.096 -0.1,0.169 -0.166,0.221 -0.063,0.052 -0.164,0.079 -0.307,0.079 -0.131,0 -0.234,-0.027 -0.316,-0.086 -0.079,-0.06 -0.119,-0.127 -0.119,-0.205 0,-0.051 0.013,-0.095 0.04,-0.13 0.03,-0.038 0.065,-0.067 0.115,-0.096 0.046,-0.023 0.096,-0.044 0.143,-0.058 0.049,-0.016 0.129,-0.037 0.243,-0.067 0.141,-0.034 0.267,-0.068 0.382,-0.108 0.115,-0.041 0.211,-0.088 0.29,-0.147 0.08,-0.055 0.144,-0.13 0.189,-0.213 0.044,-0.087 0.067,-0.192 0.067,-0.32"
             style="fill:#ffffff;fill-opacity:1;fill-rule:evenodd;stroke:none"
             id="path3077"
             inkscape:connector-curvature="0" /></g><g
           id="g3079"
           transform="translate(14.7364,40.0513)"><path
             d="M 0,0 C 0.284,0 0.564,-0.073 0.834,-0.22 1.105,-0.366 1.318,-0.575 1.469,-0.848 1.62,-1.12 1.696,-1.404 1.696,-1.699 1.696,-1.992 1.621,-2.275 1.472,-2.543 1.323,-2.816 1.114,-3.022 0.843,-3.171 0.575,-3.322 0.294,-3.397 0,-3.397 c -0.295,0 -0.577,0.075 -0.846,0.226 -0.271,0.149 -0.481,0.355 -0.629,0.628 -0.15,0.268 -0.226,0.551 -0.226,0.844 0,0.295 0.076,0.579 0.229,0.851 0.153,0.273 0.364,0.482 0.635,0.628 C -0.563,-0.073 -0.286,0 0,0 m 0,-0.282 c -0.239,0 -0.473,-0.06 -0.699,-0.184 -0.224,-0.12 -0.402,-0.298 -0.529,-0.523 -0.128,-0.227 -0.192,-0.463 -0.192,-0.71 0,-0.245 0.064,-0.48 0.19,-0.703 0.123,-0.225 0.298,-0.401 0.524,-0.524 0.225,-0.125 0.46,-0.19 0.706,-0.19 0.244,0 0.479,0.065 0.702,0.19 0.226,0.123 0.402,0.299 0.525,0.524 0.123,0.223 0.187,0.458 0.187,0.703 0,0.247 -0.064,0.483 -0.192,0.71 -0.125,0.225 -0.3,0.403 -0.527,0.523 C 0.47,-0.342 0.237,-0.282 0,-0.282 m -0.746,-2.357 0,1.829 0.628,0 c 0.214,0 0.369,-0.016 0.466,-0.05 0.096,-0.034 0.172,-0.094 0.229,-0.176 0.058,-0.085 0.085,-0.172 0.085,-0.268 0,-0.135 -0.047,-0.251 -0.142,-0.35 C 0.426,-1.753 0.298,-1.809 0.14,-1.821 0.206,-1.849 0.257,-1.879 0.297,-1.918 0.369,-1.99 0.459,-2.111 0.566,-2.28 l 0.224,-0.359 -0.362,0 -0.161,0.289 c -0.129,0.228 -0.231,0.369 -0.307,0.425 -0.055,0.041 -0.135,0.063 -0.237,0.063 l -0.175,0 0,-0.777 -0.294,0 z m 0.294,1.03 0.359,0 c 0.17,0 0.288,0.023 0.35,0.075 0.061,0.051 0.094,0.119 0.094,0.205 0,0.054 -0.016,0.1 -0.047,0.144 -0.027,0.042 -0.071,0.075 -0.122,0.097 -0.055,0.019 -0.155,0.03 -0.299,0.03 l -0.335,0 0,-0.551 z"
             style="fill:#ffffff;fill-opacity:1;fill-rule:evenodd;stroke:none"
             id="path3081"
             inkscape:connector-curvature="0" /></g></g></g></g></svg>